<?xml version="1.0" encoding="UTF-8" standalone="no"?>
<svg id="svg3064" xmlns:rdf="http://www.w3.org/1999/02/22-rdf-syntax-ns#" xmlns="http://www.w3.org/2000/svg" height="16" width="16" version="1.1" xmlns:cc="http://creativecommons.org/ns#" xmlns:dc="http://purl.org/dc/elements/1.1/">
 <metadata id="metadata3072">
  <rdf:RDF>
   <cc:Work rdf:about="">
    <dc:format>image/svg+xml</dc:format>
    <dc:type rdf:resource="http://purl.org/dc/dcmitype/StillImage"/>
    <dc:title/>
   </cc:Work>
  </rdf:RDF>
 </metadata>
 <path id="path3066" d="M7.999,0.431c-4.285,0-7.76,3.474-7.76,7.761,0,3.428,2.223,6.337,5.307,7.363,0.388,0.071,0.53-0.168,0.53-0.374,0-0.184-0.007-0.672-0.01-1.32-2.159,0.469-2.614-1.04-2.614-1.04-0.353-0.896-0.862-1.135-0.862-1.135-0.705-0.481,0.053-0.472,0.053-0.472,0.779,0.055,1.189,0.8,1.189,0.8,0.692,1.186,1.816,0.843,2.258,0.645,0.071-0.502,0.271-0.843,0.493-1.037-1.723-0.197-3.534-0.862-3.534-3.836,0-0.847,0.302-1.54,0.799-2.082-0.08-0.197-0.347-0.986,0.076-2.054,0,0,0.652-0.209,2.134,0.796,0.619-0.173,1.282-0.259,1.942-0.262,0.659,0.003,1.323,0.089,1.943,0.261,1.482-1.004,2.132-0.796,2.132-0.796,0.423,1.068,0.157,1.857,0.077,2.054,0.497,0.542,0.798,1.235,0.798,2.082,0,2.981-1.814,3.637-3.543,3.829,0.279,0.24,0.527,0.713,0.527,1.437,0,1.037-0.01,1.874-0.01,2.129,0,0.208,0.14,0.449,0.534,0.373,3.081-1.028,5.302-3.935,5.302-7.362,0-4.285-3.475-7.76-7.761-7.76z" fill="#828282"/>
</svg>
